<?xml version="1.0" encoding="UTF-8"?>
<svg version="1.1" xmlns="http://www.w3.org/2000/svg" width="512" height="512">
<path d="M0 0 C3.12802168 2.83476965 4.80511543 5.50800235 5.43359375 9.71484375 C5.43488281 10.71644531 5.43617187 11.71804687 5.4375 12.75 C5.45683594 13.74902344 5.47617188 14.74804688 5.49609375 15.77734375 C4.33278144 22.89461671 -1.70193725 27.79089147 -6.61425781 32.65380859 C-7.37562042 33.41546326 -8.13698303 34.17711792 -8.92141724 34.96185303 C-11.42727276 37.46632049 -13.94012742 39.96363822 -16.453125 42.4609375 C-18.19662367 44.20070419 -19.93967993 45.94091435 -21.68231201 47.68154907 C-26.26129748 52.25291271 -30.84625818 56.81823723 -35.43249512 61.38232422 C-40.11487501 66.04421451 -44.79157069 70.71179937 -49.46875 75.37890625 C-58.64028306 84.52901497 -67.81794782 93.67294779 -77 102.8125 C-75.27300141 106.49718151 -73.19845213 108.85033508 -70.29418945 111.72949219 C-69.57909966 112.44261063 -69.57909966 112.44261063 -68.8495636 113.1701355 C-67.27535252 114.73786691 -65.69428349 116.29849513 -64.11328125 117.859375 C-63.01138653 118.95499245 -61.91000995 120.05113122 -60.80912781 121.14776611 C-57.90783214 124.03576372 -55.00103282 126.91815203 -52.09259033 129.7989502 C-47.45465632 134.39378871 -42.82328259 138.99521199 -38.195364 143.6001358 C-36.58768724 145.19770113 -34.97657756 146.79174079 -33.36506653 148.38543701 C-28.55827247 153.15308729 -23.8771507 157.96463637 -19.47639465 163.11224365 C-17.36424838 165.5446489 -15.09483413 167.79481228 -12.79296875 170.046875 C-11.41915039 171.40232422 -11.41915039 171.40232422 -10.01757812 172.78515625 C-8.59230123 174.18387519 -7.16697625 175.58254999 -5.73852539 176.97802734 C-4.33564246 178.35069726 -2.93921301 179.72995296 -1.54296875 181.109375 C-0.71821045 181.91729492 0.10654785 182.72521484 0.95629883 183.55761719 C4.96396286 187.97940491 5.44976612 191.51461279 5.3125 197.33984375 C4.84228626 201.06040999 3.52775595 203.08518437 1 205.8125 C-3.14809441 208.70651936 -6.74766091 209.17520818 -11.65625 209.30859375 C-18.38520579 207.88429811 -23.35701936 201.73272397 -27.99609375 197.046875 C-28.74786392 196.29464661 -29.49963409 195.54241821 -30.27418518 194.76739502 C-31.85907609 193.17949244 -33.44154535 191.58916953 -35.02172852 189.99658203 C-37.4209071 187.57921867 -39.82791873 185.16988197 -42.23632812 182.76171875 C-43.78172101 181.21140688 -45.32665777 179.66064015 -46.87109375 178.109375 C-47.5817247 177.39763123 -48.29235565 176.68588745 -49.02452087 175.95257568 C-52.24164074 172.70530922 -55.36874748 169.43036938 -58.34301758 165.95849609 C-62.38387715 161.28038409 -66.76422744 156.96591177 -71.16742706 152.63103867 C-72.67586932 151.14496583 -74.1800187 149.6546664 -75.68304443 148.16311646 C-79.95072415 143.92872194 -84.22275613 139.69879136 -88.50488281 135.47900391 C-91.13893331 132.88270421 -93.76552688 130.27905509 -96.38756561 127.67062759 C-97.38149566 126.68471169 -98.37818742 125.70157137 -99.37775421 124.7213707 C-100.77470625 123.35105092 -102.16148812 121.97038686 -103.54785156 120.58935547 C-104.33726135 119.80962372 -105.12667114 119.02989197 -105.94000244 118.22653198 C-109.73991333 113.77356243 -111.4298335 109.70920776 -111.4375 103.875 C-111.45683594 102.89660156 -111.47617188 101.91820312 -111.49609375 100.91015625 C-110.46553125 94.47522664 -106.48738826 89.92533296 -101.9753418 85.46313477 C-101.48856964 84.97753082 -101.00179749 84.49192688 -100.50027466 83.99160767 C-98.9068072 82.4052635 -97.30309398 80.82972052 -95.69921875 79.25390625 C-94.57754032 78.14038041 -93.45660661 77.02610395 -92.33638 75.91111755 C-89.39458012 72.98636847 -86.44432631 70.07030773 -83.49169922 67.15649414 C-78.77568235 62.49982634 -74.07227719 57.83043214 -69.36966896 53.16023064 C-67.73797514 51.5423349 -66.10243343 49.92841441 -64.4662323 48.31507874 C-59.66651059 43.56926807 -54.9887848 38.78292209 -50.60099792 33.64750671 C-47.76805317 30.40048648 -44.71900206 27.36891385 -41.67578125 24.3203125 C-40.67275215 23.3122908 -40.67275215 23.3122908 -39.64945984 22.28390503 C-38.24995052 20.87937625 -36.84912376 19.47615906 -35.44702148 18.07421875 C-33.30228382 15.92727331 -31.16569982 13.77242308 -29.02929688 11.6171875 C-27.66194757 10.24690747 -26.29412577 8.87709873 -24.92578125 7.5078125 C-23.9725573 6.54381027 -23.9725573 6.54381027 -23.00007629 5.56033325 C-22.40232895 4.96566254 -21.8045816 4.37099182 -21.1887207 3.75830078 C-20.66800491 3.23615997 -20.14728912 2.71401917 -19.61079407 2.17605591 C-14.12824536 -2.46498532 -6.50329997 -2.57422291 0 0 Z " fill="#000000" transform="translate(121,152.1875)"/>
<path d="M0 0 C5.53135419 3.18258276 9.74603834 7.47185358 14.21484375 11.984375 C14.98880997 12.75879944 15.76277618 13.53322388 16.56019592 14.33111572 C18.1921649 15.96609691 19.8217117 17.60349897 21.44897461 19.24316406 C23.92058014 21.73295564 26.40002283 24.21472215 28.88085938 26.6953125 C30.4718252 28.29119722 32.06233489 29.88753683 33.65234375 31.484375 C34.38484848 32.21799255 35.11735321 32.95161011 35.87205505 33.7074585 C39.1491384 37.01437311 42.34009293 40.3460067 45.37036133 43.88134766 C49.78440581 48.99401535 54.61120052 53.67806294 59.421875 58.4140625 C60.41403973 59.39671667 61.40575083 60.37982903 62.39703369 61.3633728 C66.56912829 65.50219249 70.74558394 69.63653669 74.93212891 73.76074219 C77.50782756 76.29868428 80.07606306 78.84397952 82.63974762 81.39405441 C83.61134842 82.3576429 84.58571037 83.31845607 85.56295013 84.27632523 C86.92877223 85.61550656 88.28441818 86.9650423 89.63964844 88.31494141 C90.41129333 89.07690826 91.18293823 89.83887512 91.97796631 90.62393188 C95.77628004 95.08728588 97.42989977 99.16302453 97.4375 105 C97.45683594 105.99 97.47617187 106.98 97.49609375 108 C96.38606083 114.71264 90.96596808 119.29669129 86.29296875 123.8671875 C85.64934891 124.50560577 85.00572906 125.14402405 84.34260559 125.80178833 C82.29564074 127.83104831 80.24209965 129.85347287 78.1875 131.875 C76.14446487 133.89021404 74.10299125 135.906948 72.06452942 137.92678833 C70.8006855 139.1785932 69.53418192 140.42772124 68.26445007 141.67355347 C65.32317737 144.58211201 62.50403723 147.53324137 59.81445312 150.67675781 C54.78673679 156.49450829 49.29545268 161.86898227 43.86328125 167.3046875 C42.69452393 168.47666423 41.52583929 169.64871344 40.35722351 170.8208313 C37.92244988 173.26155579 35.48565607 175.70024246 33.04760742 178.13769531 C29.92549067 181.25970983 26.81034779 184.38858609 23.69686604 187.51920891 C21.29222172 189.93496282 18.88305523 192.34616716 16.47258568 194.75610733 C15.32153811 195.90833345 14.17210827 197.06217804 13.02434731 198.21767807 C11.4236891 199.82812955 9.81682452 201.4321269 8.20825195 203.03466797 C7.29670853 203.94763641 6.3851651 204.86060486 5.44599915 205.80123901 C1.16096031 209.65315214 -2.03974076 210.46126713 -7.68359375 210.3125 C-11.65553685 209.77665607 -13.79065179 208.43910464 -17 206 C-19.75529382 202.08926038 -20.34033417 198.77326622 -20.3984375 194.125 C-19.08519671 187.12104915 -14.16911569 182.75753682 -9.31567383 177.97509766 C-8.5349501 177.19393585 -7.75422638 176.41277405 -6.94984436 175.60794067 C-4.37595592 173.03613676 -1.79161575 170.47511322 0.79296875 167.9140625 C2.58295461 166.12967375 4.37227785 164.34462007 6.16096497 162.55892944 C10.3840252 158.34614049 14.61369333 154.14009978 18.84666473 149.93727815 C23.66757612 145.14995773 28.47992033 140.35406436 33.29158056 135.55744863 C43.18491511 125.69542898 53.08890591 115.84416928 63 106 C61.64392353 102.96874119 60.12869813 100.88499566 57.77380371 98.55348206 C57.10922653 97.89049103 56.44464935 97.2275 55.75993347 96.54441833 C55.03155777 95.82794632 54.30318207 95.1114743 53.55273438 94.37329102 C52.78512283 93.6102063 52.01751129 92.84712158 51.22663879 92.06091309 C49.55966298 90.40489458 47.89042009 88.75115575 46.2191925 87.09942818 C43.57543289 84.48579789 40.93837733 81.8655744 38.30310059 79.24339294 C31.75689762 72.73194272 25.20212754 66.22913882 18.64215088 59.73156738 C13.09939911 54.24151128 7.56247957 48.74569957 2.03425598 43.24101067 C0.28602352 41.50335643 -1.46511834 39.76862429 -3.2191925 38.03686714 C-5.6705104 35.61668937 -8.11253447 33.1874834 -10.55273438 30.75610352 C-11.28111008 30.04165573 -12.00948578 29.32720795 -12.75993347 28.59111023 C-17.40398629 23.93843653 -19.72666655 20.82444563 -20.375 14.125 C-20.24255815 9.45421729 -18.7334518 6.76773085 -16 3 C-11.70671018 -1.03309044 -5.57184034 -0.9814476 0 0 Z " fill="#000000" transform="translate(405,151)"/>
<path d="M0 0 C5.14689933 4.32807444 9.61622733 9.75333519 10.23828125 16.63671875 C10.43304919 24.64270603 9.70657539 30.01740304 4.1640625 35.97265625 C-1.63552803 41.38338535 -6.76722803 43.46329723 -14.69921875 43.25 C-21.3034288 42.53239483 -26.35835058 39.74714145 -31 35 C-36.07178086 28.51064064 -35.88582294 20.89858791 -35 13 C-33.48445373 7.01359224 -30.03210591 3.59519332 -25.00390625 0.1875 C-17.13702904 -4.47435316 -7.98540461 -4.37796305 0 0 Z " fill="#000000" transform="translate(359,236)"/>
<path d="M0 0 C5.14689933 4.32807444 9.61622733 9.75333519 10.23828125 16.63671875 C10.43304919 24.64270603 9.70657539 30.01740304 4.1640625 35.97265625 C-1.63552803 41.38338535 -6.76722803 43.46329723 -14.69921875 43.25 C-21.3034288 42.53239483 -26.35835058 39.74714145 -31 35 C-36.07178086 28.51064064 -35.88582294 20.89858791 -35 13 C-33.48445373 7.01359224 -30.03210591 3.59519332 -25.00390625 0.1875 C-17.13702904 -4.47435316 -7.98540461 -4.37796305 0 0 Z " fill="#000000" transform="translate(271,236)"/>
<path d="M0 0 C5.70985361 4.29760837 8.19087486 9.94720121 9.4609375 16.88671875 C9.86010839 23.24770009 7.58792909 29.79029671 3.5390625 34.6796875 C-1.42801133 39.26030708 -7.14594542 41.87334645 -13.91796875 42.19140625 C-21.17445924 41.86415276 -26.80333198 38.93104302 -31.91796875 33.81640625 C-36.30122627 27.5846184 -37.94058504 21.35085499 -36.91796875 13.81640625 C-34.63903652 7.02048728 -31.0744281 1.60295974 -24.91796875 -2.18359375 C-16.08251785 -5.71777411 -7.97382021 -4.92070779 0 0 Z " fill="#000000" transform="translate(185.91796875,237.18359375)"/>
</svg>
